PathFileType	4	(X/Y/Z)	S:\OneDrive - The University of Tokyo\ìåëÂéˆã∆\ÉoÉCÉÅÉJ\ë™íË\hirabayashi_2\Trimmed\Trimmed_BarR40kg1.trc
DataRate	CameraRate	NumFrames	NumMarkers	Units	OrigDataRate	OrigDataStartFrame	OrigNumFrames
200.00	200.00	       17	12	mm	200.00	1	       293
Frame#	Time	BarR0			BarR50			BarR100			BarR130			BarR180			BarR230			BarL0			BarL50			BarL100			BarL130			BarL180			BarL230			
		X1	Y1	Z1	X2	Y2	Z2	X3	Y3	Z3	X4	Y4	Z4	X5	Y5	Z5	X6	Y6	Z6	X7	Y7	Z7	X8	Y8	Z8	X9	Y9	Z9	X10	Y10	Z10	X11	Y11	Z11	X12	Y12	Z12	

1	0.000	-576.47675	2754.31860	1664.18481	-603.57489	2305.06763	1653.46326	-637.39679	1851.41138	1646.80603	-660.77057	1349.61780	1646.73413	-689.72852	903.02838	1653.56812	-713.83783	455.36276	1663.99390	-1113.53491	2808.15601	1664.69983	-1140.70349	2356.49365	1667.88281	-1171.19800	1906.04480	1668.77185	-1198.97168	1404.28308	1669.15356	-1226.74390	952.64001	1668.32068	-1244.53687	506.39807	1667.66333	
2	0.005	-576.47357	2754.31860	1664.19788	-603.61237	2305.07935	1653.43591	-637.41534	1851.38354	1646.82117	-660.78204	1349.63940	1646.72205	-689.72852	903.01074	1653.55017	-713.83325	455.34732	1663.98547	-1113.52930	2808.15771	1664.68335	-1140.70593	2356.48730	1667.87805	-1171.18762	1906.04248	1668.76782	-1198.98108	1404.26575	1669.14124	-1226.75403	952.63898	1668.31177	-1244.51880	506.40353	1667.65820	
3	0.010	-576.49615	2754.31152	1664.18970	-603.60358	2305.08032	1653.43250	-637.38318	1851.38257	1646.80847	-660.74689	1349.61633	1646.73486	-689.74744	903.03198	1653.55200	-713.83185	455.34039	1664.00342	-1113.54895	2808.17920	1664.69446	-1140.71155	2356.48096	1667.87476	-1171.19312	1906.04504	1668.76147	-1198.97131	1404.27271	1669.15063	-1226.74219	952.65509	1668.31921	-1244.53345	506.41910	1667.64319	
4	0.015	-576.49847	2754.31396	1664.19128	-603.62567	2305.06812	1653.43457	-637.40607	1851.39722	1646.80652	-660.75385	1349.64490	1646.71936	-689.73743	903.02612	1653.55115	-713.83002	455.31497	1663.98926	-1113.52966	2808.17480	1664.68860	-1140.71167	2356.47144	1667.86841	-1171.19397	1906.04077	1668.76526	-1198.99402	1404.28699	1669.15259	-1226.75586	952.64410	1668.32324	-1244.52393	506.39670	1667.64661	
5	0.020	-576.48859	2754.29907	1664.18640	-603.60980	2305.05005	1653.45752	-637.42242	1851.40686	1646.81042	-660.75769	1349.62549	1646.73035	-689.75635	903.02332	1653.56409	-713.84015	455.34030	1663.98694	-1113.55469	2808.16870	1664.67505	-1140.69849	2356.49365	1667.87769	-1171.18286	1906.05298	1668.76794	-1198.97974	1404.26697	1669.14087	-1226.74841	952.65460	1668.32166	-1244.51270	506.39139	1667.64893	
6	0.025	-576.47919	2754.28418	1664.18835	-603.61511	2305.08618	1653.44604	-637.39410	1851.40210	1646.80640	-660.78314	1349.64661	1646.72180	-689.72662	902.99487	1653.74841	-713.83813	455.33847	1663.98608	-1113.56995	2808.13770	1664.68689	-1140.70447	2356.49487	1667.87939	-1171.18823	1906.04456	1668.76367	-1198.96167	1404.26794	1669.17932	-1226.74585	952.64142	1668.30237	-1244.51917	506.39539	1667.65332	
7	0.030	-576.48541	2754.31592	1664.17017	-603.59900	2305.08325	1653.45435	-637.40033	1851.38379	1646.81909	-660.76733	1349.63220	1646.74109	-689.72937	903.01898	1653.74487	-713.82446	455.34247	1663.99390	-1113.51697	2808.13721	1664.70557	-1140.71155	2356.47559	1667.87769	-1171.17932	1906.04114	1668.77026	-1198.95532	1404.25854	1669.19250	-1226.76062	952.65021	1668.31616	-1244.53320	506.42615	1667.65015	
8	0.035	-576.47406	2754.29907	1664.20056	-603.62842	2305.10303	1653.45349	-637.39111	1851.40430	1646.80969	-660.76874	1349.64539	1646.73169	-689.73486	903.00812	1653.74280	-713.84668	455.33850	1663.98779	-1113.56677	2808.19238	1664.69397	-1140.69751	2356.48706	1667.88000	-1171.16895	1906.04858	1668.76477	-1198.97107	1404.25830	1669.16492	-1226.75281	952.64752	1668.31262	-1244.53479	506.40466	1667.66394	
9	0.040	-576.49054	2754.31250	1664.18542	-603.62213	2305.07300	1653.41968	-637.39294	1851.38013	1646.81287	-660.76428	1349.64929	1646.72693	-689.72894	903.03394	1653.55591	-713.82764	455.35428	1663.99280	-1113.54517	2808.16235	1664.68579	-1140.71570	2356.48657	1667.87183	-1171.18591	1906.04260	1668.76440	-1198.96411	1404.30981	1669.18164	-1226.75220	952.65173	1668.30896	-1244.53113	506.40933	1667.64172	
10	0.045	-576.49786	2754.29590	1664.18787	-603.61542	2305.07666	1653.44971	-637.41864	1851.36108	1646.81091	-660.77264	1349.63721	1646.73926	-689.73413	903.02954	1653.53186	-713.83447	455.36270	1663.99268	-1113.54480	2808.17114	1664.69043	-1140.70410	2356.48926	1667.86987	-1171.17749	1906.05933	1668.75964	-1198.97937	1404.27856	1669.14355	-1226.75647	952.64276	1668.30078	-1244.53381	506.40350	1667.65466	
11	0.050	-576.48157	2754.31616	1664.18579	-603.61603	2305.09229	1653.43542	-637.41266	1851.40771	1646.81958	-660.76062	1349.64734	1646.72852	-689.74774	903.00262	1653.55798	-713.82813	455.32959	1663.99280	-1113.54407	2808.16309	1664.69617	-1140.72168	2356.49072	1667.87036	-1171.17126	1906.04407	1668.75562	-1198.97437	1404.30078	1669.14819	-1226.75562	952.64032	1668.30688	-1244.52002	506.39362	1667.65820	
12	0.055	-576.50128	2754.30054	1664.20239	-603.61133	2305.05713	1653.43811	-637.37964	1851.38110	1646.80859	-660.76892	1349.64502	1646.72424	-689.75061	903.01862	1653.56177	-713.84973	455.33200	1663.98633	-1113.52722	2808.18213	1664.68933	-1140.70874	2356.47949	1667.86951	-1171.18713	1906.04846	1668.76636	-1198.97888	1404.27246	1669.15759	-1226.76013	952.63666	1668.31396	-1244.52393	506.42676	1667.66577	
13	0.060	-576.48340	2754.29688	1664.19287	-603.63751	2305.06299	1653.43933	-637.37439	1851.42310	1646.81604	-660.77911	1349.63550	1646.73181	-689.74048	903.04211	1653.54749	-713.84082	455.35446	1663.99048	-1113.54724	2808.16382	1664.70813	-1140.70801	2356.47974	1667.86975	-1171.19849	1906.07898	1668.76794	-1198.98389	1404.28687	1669.14478	-1226.75464	952.63898	1668.30273	-1244.52429	506.42020	1667.65320	
14	0.065	-576.47345	2754.31421	1664.18152	-603.60883	2305.08325	1653.45032	-637.40088	1851.38892	1646.81787	-660.76398	1349.63159	1646.74133	-689.73578	902.99115	1653.55994	-713.83289	455.33826	1663.99219	-1113.53235	2808.16577	1664.70056	-1140.72217	2356.47827	1667.86890	-1171.18359	1906.04626	1668.76270	-1198.96851	1404.27991	1669.14294	-1226.75989	952.63928	1668.29822	-1244.51355	506.40457	1667.65491	
15	0.070	-576.49286	2754.30225	1664.17883	-603.60315	2305.07788	1653.43921	-637.38904	1851.40259	1646.80408	-660.77234	1349.63367	1646.72839	-689.72614	903.00372	1653.76001	-713.84064	455.33865	1663.97998	-1113.57227	2808.16284	1664.69458	-1140.71387	2356.49390	1667.88770	-1171.16370	1906.05469	1668.76221	-1198.94800	1404.30017	1669.18323	-1226.75085	952.65100	1668.30713	-1244.52905	506.38730	1667.63782	
16	0.075	-576.48358	2754.32104	1664.17517	-603.63263	2305.07886	1653.42627	-637.39014	1851.39844	1646.81543	-660.77112	1349.63159	1646.72278	-689.74329	903.02661	1653.54333	-713.82452	455.35144	1663.98889	-1113.52441	2808.14697	1664.68445	-1140.71863	2356.47510	1667.87268	-1171.17749	1906.07068	1668.76709	-1198.96265	1404.25720	1669.14880	-1226.74695	952.64484	1668.29797	-1244.52344	506.39844	1667.64502	
17	0.080	-576.48132	2754.29297	1664.19751	-603.59515	2305.08789	1653.45544	-637.41968	1851.40295	1646.82214	-660.79260	1349.64746	1646.71924	-689.73077	903.01361	1653.56604	-713.84192	455.34161	1663.98901	-1113.56689	2808.18213	1664.69202	-1140.70264	2356.47559	1667.86914	-1171.19592	1906.04639	1668.75806	-1198.99011	1404.23975	1669.14954	-1226.75146	952.65613	1668.31396	-1244.52478	506.39917	1667.65112	
